<?xml version="1.0" encoding="UTF-8"?>
<svg id="_图层_1" data-name="图层_1" xmlns="http://www.w3.org/2000/svg" version="1.1" viewBox="0 0 64 32">
  <!-- Generator: Adobe Illustrator 30.1.0, SVG Export Plug-In . SVG Version: 2.1.1 Build 136)  -->
  <defs>
    <style>
      .st0 {
        fill: #fff;
      }
    </style>
  </defs>
  <g>
    <path d="M24.7,27.8c0,.4-.3.7-.6.7-.3,0-.7,0-.9-.4,0,.4.4.6.8.6s.7-.4.7-.8v-2.9c0-.6.1-1.2.1-1.8v-1.8s0-2.7,0-2.7v-.8c0-.1,0-.5.1-.5s3-.1,2.7.1,0,0-.1,0c-.3,0-.7,0-1.1,0h-1.5c0,0,0,6.9,0,6.9,0,1.2,0,2.3,0,3.5s-.4,1.1-1,1.1-1-.2-1.2-.8-.1-.8,0-1.1c.5-.2,0-1.4.2-2v-8s-3.3,0-3.3,0l-.2,3.9-.4,7c0,.3-.5.5-.7.5s-.7-.2-.7-.6c0-.7,0-1.5,0-2.2v-1.4c0,0,.6-7.7.6-7.7,0-.5.3-.9.9-1h3.8c.1-.4.2-.8,0-1.2h-3.9c-.5,0-.8-.4-.8-.8l-.2-1.9-.6-7.3c0-.4.3-.8.6-.8s.8.2.8.6l.7,8.8h3.4s0-2.3,0-2.3c0-.4,0-.8,0-1.2,0-1.9,0-3.3,0-5.2s.3-.7.8-.7.6.2.6.6v8.8s3.3,0,3.3,0c.1-.4.2-.8.2-1.2l.2-1.8.5-5.9c0-.4.5-.6.8-.6.4,0,.7.4.6.8l-.8,9.2c0,.5-.4.7-.8.7h-3.9c0,.5,0,.8,0,1.3h2.5c.6,0,1.2-.1,1.8,0s.4.5.5.9l.5,5.9.2,2.4c0,.3,0,.5,0,.8v2c.1.5-.3.8-.7.8s-.7-.4-.7-.8l-.2-1.6v-.7c0,0-.1-1.1-.1-1.1v-.8s-.5-5.9-.5-5.9c0-.2,0-.4-.2-.4h-3.2s0,7.5,0,7.5v3.2Z"/>
    <path d="M3.1,28.5c-.3,0-.5-.1-.7-.2-.5-.5,0-1.3.3-1.8l.9-1.5.9-1.7,1.7-3.1,2.3-4.1-1.6-2.8L2.5,5c-.1-.3-.2-.5,0-.8s.3-.4.6-.4h2.6s10.1,0,10.1,0c.3,0,.6.1.7.4s0,.5,0,.8l-3.5,6.4-2.7,4.8,3.1,5.6,2.1,3.6c.3.7,1.5,2.3,1,2.9s-.4.3-.6.3H3.1ZM10.5,12.6l3.9-7.1c0,0,0-.2,0-.2s-.1-.1-.2-.1H4.4c0,0-.2,0-.2.1s0,.2,0,.2l3,5.5,2.1,3.7c.5-.7.8-1.3,1.2-2ZM14.5,27l-1.4-2.7c-.4-.7-3.5-6.5-3.7-6.6s0,0-.2.1l-5.1,9.3h9.1s.7,0,.7,0h.6Z"/>
    <path d="M2,28c.2.4.6.7,1.1.7h12.6c.4,0,.8-.2.8-.5s0-.6,0-1c.2.3.4.7.2,1.1s-.4.7-.8.7h-2.7s-10.3,0-10.3,0c-.6,0-1.1-.5-1-1Z"/>
    <path d="M28.4,24.9c0-.6-.2-1.1,0-1.6,0,.4.1.9.2,1.4l.2,2.2c0,.5.1.9.3,1.4s.7.6,1,.5c.5-.1.6-.6.6-1l-.2-2.4-.3-3.8-.2-2.5-.2-1.8v-1.1c.2.7.1,1.5.2,2.3v.7c0,0,.2,2,.2,2l.2,2.3.4,4.3c0,.6-.2,1.2-.8,1.4s-1.3-.3-1.4-.9v-1.3c-.1,0-.2-.9-.2-.9v-.8Z"/>
    <path d="M19.6,28.3c-.1.6-.8.9-1.3.7s-.9-.8-.7-1.4c0,.3.1.6.3.8.2.3.6.4,1,.3s.6-.5.6-.9l.2-2.9.3-4.4v-1s.2-2.2.2-2.2h2.5c0,0,.2,0,.2,0,0,0,0,.2-.1.2h-2.4c-.1.4,0,.8,0,1.2v2.2c-.1,0-.5,5.5-.5,5.5,0,.6,0,1.2-.2,1.8Z"/>
    <path d="M25.4,14.9c-.1,0-.3,0-.3.1v.4c-.2-.1-.2-.5,0-.6h3.4c.4,0,.8-.2.9-.4.3-.3.3-.7.3-1l.2-2.3c0-.6,0-1.1.2-1.6s0-.5,0-.8c0-1.3.1-1.4.2-2.5v-.9c0-.3,0-.5.2-.7,0,.2,0,.5,0,.7v.9c0,0-.1.9-.1.9,0,.6,0,1.2-.2,1.9s-.2,2.3-.2,2.5v1c0,.5-.1,1-.2,1.5s-.4,1-1,1h-3.4Z"/>
    <path d="M10.9,15.7c-.1.2-.2.4-.2.6l-.2-.3,4.9-8.8,1.1-2c0,.5-.4.8-.6,1.2l-.5,1-4.5,8.2Z"/>
    <path d="M22.8,14.9h-1.6c-.7.2-1.8,0-2.4,0,.4,0,.8,0,1.2,0h2.7Z"/>
    <path d="M25,12.8c0-1.7,0-3.4,0-5.1,0,1.7,0,3.4,0,5.1Z"/>
    <path d="M8.3,5.5c-.5,0-.8,0-1.3,0-.7,0-1.4,0-2.1,0,0,.2,0,.1-.1,0h9.2s-5.7.1-5.7.1Z"/>
    <path d="M6.2,24.3l-1.3,2.4c0,.2-.2.4-.4.3l1.8-3.3,3-5.3c.3.3.4.5.5.9l-.5-.6-3.2,5.7Z"/>
    <path d="M14.2,26.8s-.2,0-.2,0l-1.9-3.4-1.2-2.1c-.2-.3-.3-.7-.5-1.1.5.7.9,1.4,1.3,2.2l1,1.7,1.1,1.9.4.7Z"/>
  </g>
  <g>
    <path class="st0" d="M55.7,27.8c0,.4-.3.7-.6.7-.3,0-.7,0-.9-.4,0,.4.4.6.8.6s.7-.4.7-.8v-2.9c0-.6.1-1.2.1-1.8v-1.8s0-2.7,0-2.7v-.8c0-.1,0-.5.1-.5s3-.1,2.7.1,0,0-.1,0c-.3,0-.7,0-1.1,0h-1.5c0,0,0,6.9,0,6.9,0,1.2,0,2.3,0,3.5s-.4,1.1-1,1.1-1-.2-1.2-.8-.1-.8,0-1.1c.5-.2,0-1.4.2-2v-8s-3.3,0-3.3,0l-.2,3.9-.4,7c0,.3-.5.5-.7.5s-.7-.2-.7-.6c0-.7,0-1.5,0-2.2v-1.4c0,0,.6-7.7.6-7.7,0-.5.3-.9.9-1h3.8c.1-.4.2-.8,0-1.2h-3.9c-.5,0-.8-.4-.8-.8l-.2-1.9-.6-7.3c0-.4.3-.8.6-.8s.8.2.8.6l.7,8.8h3.4s0-2.3,0-2.3c0-.4,0-.8,0-1.2,0-1.9,0-3.3,0-5.2s.3-.7.8-.7.6.2.6.6v8.8s3.3,0,3.3,0c.1-.4.2-.8.2-1.2l.2-1.8.5-5.9c0-.4.5-.6.8-.6.4,0,.7.4.6.8l-.8,9.2c0,.5-.4.7-.8.7h-3.9c0,.5,0,.8,0,1.3h2.5c.6,0,1.2-.1,1.8,0s.4.5.5.9l.5,5.9.2,2.4c0,.3,0,.5,0,.8v2c.1.5-.3.8-.7.8s-.7-.4-.7-.8l-.2-1.6v-.7c0,0-.1-1.1-.1-1.1v-.8s-.5-5.9-.5-5.9c0-.2,0-.4-.2-.4h-3.2s0,7.5,0,7.5v3.2Z"/>
    <path class="st0" d="M34.1,28.5c-.3,0-.5-.1-.7-.2-.5-.5,0-1.3.3-1.8l.9-1.5.9-1.7,1.7-3.1,2.3-4.1-1.6-2.8-4.5-8.3c-.1-.3-.2-.5,0-.8s.3-.4.6-.4h2.6s10.1,0,10.1,0c.3,0,.6.1.7.4s0,.5,0,.8l-3.5,6.4-2.7,4.8,3.1,5.6,2.1,3.6c.3.7,1.5,2.3,1,2.9s-.4.3-.6.3h-12.6ZM41.5,12.5l3.9-7.1c0,0,0-.2,0-.2s-.1-.1-.2-.1h-9.9c0,0-.2,0-.2.1s0,.2,0,.2l3,5.5,2.1,3.7c.5-.7.8-1.3,1.2-2ZM45.5,27l-1.4-2.7c-.4-.7-3.5-6.5-3.7-6.6s0,0-.2.1l-5.1,9.3h9.1s.7,0,.7,0h.6Z"/>
    <path class="st0" d="M32.9,28c.2.4.6.7,1.1.7h12.6c.4,0,.8-.2.8-.5s0-.6,0-1c.2.3.4.7.2,1.1s-.4.7-.8.7h-2.7s-10.3,0-10.3,0c-.6,0-1.1-.5-1-1Z"/>
    <path class="st0" d="M59.3,24.9c0-.6-.2-1.1,0-1.6,0,.4.1.9.2,1.4l.2,2.2c0,.5.1.9.3,1.4s.7.6,1,.5c.5-.1.6-.6.6-1l-.2-2.4-.3-3.8-.2-2.5-.2-1.8v-1.1c.2.7.1,1.5.2,2.3v.7c0,0,.2,2,.2,2l.2,2.3.4,4.3c0,.6-.2,1.2-.8,1.4s-1.3-.3-1.4-.9v-1.3c-.1,0-.2-.9-.2-.9v-.8Z"/>
    <path class="st0" d="M50.6,28.2c-.1.6-.8.9-1.3.7s-.9-.8-.7-1.4c0,.3.1.6.3.8.2.3.6.4,1,.3s.6-.5.6-.9l.2-2.9.3-4.4v-1s.2-2.2.2-2.2h2.5c0,0,.2,0,.2,0,0,0,0,.2-.1.2h-2.4c-.1.4,0,.8,0,1.2v2.2c-.1,0-.5,5.5-.5,5.5,0,.6,0,1.2-.2,1.8Z"/>
    <path class="st0" d="M56.4,14.9c-.1,0-.3,0-.3.1v.4c-.2-.1-.2-.5,0-.6h3.4c.4,0,.8-.2.9-.4.3-.3.3-.7.3-1l.2-2.3c0-.6,0-1.1.2-1.6s0-.5,0-.8c0-1.3.1-1.4.2-2.5v-.9c0-.3,0-.5.2-.7,0,.2,0,.5,0,.7v.9c0,0-.1.9-.1.9,0,.6,0,1.2-.2,1.9s-.2,2.3-.2,2.5v1c0,.5-.1,1-.2,1.5s-.4,1-1,1h-3.4Z"/>
    <path class="st0" d="M41.9,15.7c-.1.2-.2.4-.2.6l-.2-.3,4.9-8.8,1.1-2c0,.5-.4.8-.6,1.2l-.5,1-4.5,8.2Z"/>
    <path class="st0" d="M53.8,14.8h-1.6c-.7.2-1.8,0-2.4,0,.4,0,.8,0,1.2,0h2.7Z"/>
    <path class="st0" d="M56,12.8c0-1.7,0-3.4,0-5.1,0,1.7,0,3.4,0,5.1Z"/>
    <path class="st0" d="M39.3,5.5c-.5,0-.8,0-1.3,0-.7,0-1.4,0-2.1,0,0,.2,0,.1-.1,0h9.2s-5.7.1-5.7.1Z"/>
    <path class="st0" d="M37.2,24.2l-1.3,2.4c0,.2-.2.4-.4.3l1.8-3.3,3-5.3c.3.3.4.5.5.9l-.5-.6-3.2,5.7Z"/>
    <path class="st0" d="M45.2,26.8s-.2,0-.2,0l-1.9-3.4-1.2-2.1c-.2-.3-.3-.7-.5-1.1.5.7.9,1.4,1.3,2.2l1,1.7,1.1,1.9.4.7Z"/>
  </g>
</svg>